<?xml version="1.0" standalone="no"?><!DOCTYPE svg PUBLIC "-//W3C//DTD SVG 1.1//EN" "http://www.w3.org/Graphics/SVG/1.1/DTD/svg11.dtd"><svg t="1554377848376" class="icon" style="" viewBox="0 0 1024 1024" version="1.1" xmlns="http://www.w3.org/2000/svg" p-id="2555" xmlns:xlink="http://www.w3.org/1999/xlink" width="200" height="200"><defs><style type="text/css"></style></defs><path d="M886.23024 814.44838 552.35715 480.57529l333.143473-333.142449c5.511527-5.170766 9.003048-12.466939 9.003048-20.621667 0-15.654538-12.691043-28.345582-28.345582-28.345582-7.78122 0-14.821567 3.14462-19.943215 8.220219l-0.070608-0.070608L512.270153 440.489316 178.397063 106.616226l-0.020466 0.020466c-5.117554-5.0449-12.131295-8.1711-19.884886-8.1711-15.654538 0-28.345582 12.691043-28.345582 28.345582 0 7.753591 3.127224 14.767332 8.172123 19.884886l-0.00614 0.00614 0.067538 0.067538c0.051165 0.051165 0.102331 0.102331 0.152473 0.152473l333.652056 333.652056L140.810003 811.949466c-6.832615 5.174859-11.314697 13.295817-11.314697 22.528086 0 15.654538 12.691043 28.345582 28.345582 28.345582 7.955182 0 15.120372-3.298116 20.268626-8.575306l0.287549 0.287549 333.87309-333.87309 333.775876 333.775876c5.134951 5.174859 12.245905 8.385994 20.11206 8.385994 15.654538 0 28.345582-12.69002 28.345582-28.345582 0-7.816013-3.166109-14.892175-8.28264-20.019962L886.23024 814.44838z" p-id="2556" fill="#dd1f36"></path></svg>