<?xml version="1.0" standalone="no"?><!DOCTYPE svg PUBLIC "-//W3C//DTD SVG 1.1//EN" "http://www.w3.org/Graphics/SVG/1.1/DTD/svg11.dtd"><svg t="1554377957070" class="icon" style="" viewBox="0 0 1024 1024" version="1.1" xmlns="http://www.w3.org/2000/svg" p-id="3387" xmlns:xlink="http://www.w3.org/1999/xlink" width="200" height="200"><defs><style type="text/css"></style></defs><path d="M512 0C228.072727 0 0 228.072727 0 512c0 88.436364 23.272727 172.218182 62.836364 246.690909 4.654545 18.618182 23.272727 32.581818 44.218182 32.581818 25.6 0 46.545455-20.945455 46.545455-46.545455l0-4.654545c0-18.618182-11.636364-37.236364-27.927273-44.218182l6.981818-6.981818c-25.6-53.527273-39.563636-114.036364-39.563636-179.2 0-232.727273 188.509091-418.909091 418.909091-418.909091 232.727273 0 418.909091 188.509091 418.909091 418.909091 0 232.727273-188.509091 418.909091-418.909091 418.909091-93.090909 0-176.872727-30.254545-246.690909-81.454545-9.309091-9.309091-20.945455-13.963636-34.909091-13.963636-25.6 0-46.545455 20.945455-46.545455 46.545455l0 4.654545c0 20.945455 13.963636 39.563636 32.581818 44.218182 83.781818 58.181818 183.854545 93.090909 293.236364 93.090909 283.927273 0 512-230.4 512-512C1024 228.072727 793.6 0 512 0zM512 414.254545c-25.6 0-46.545455 20.945455-46.545455 46.545455L465.454545 744.727273c0 25.6 20.945455 46.545455 46.545455 46.545455 25.6 0 46.545455-20.945455 46.545455-46.545455l0-283.927273C558.545455 435.2 537.6 414.254545 512 414.254545zM560.872727 279.272727c0-27.927273-23.272727-48.872727-48.872727-48.872727-27.927273 0-48.872727 23.272727-48.872727 48.872727l0 2.327273c0 27.927273 23.272727 48.872727 48.872727 48.872727S560.872727 307.2 560.872727 279.272727L560.872727 279.272727z" p-id="3388" fill="#1296db"></path></svg>